<svg width="400" height="400" viewBox="0 0 400 400" fill="none" xmlns="http://www.w3.org/2000/svg">
<circle cx="8" cy="8" r="4" fill="#525053"/>
<circle cx="72" cy="8" r="4" fill="#525053"/>
<circle cx="136" cy="8" r="4" fill="#525053"/>
<circle cx="200" cy="8" r="4" fill="#525053"/>
<circle cx="264" cy="8" r="4" fill="#525053"/>
<circle cx="328" cy="8" r="4" fill="#525053"/>
<circle cx="24" cy="8" r="4" fill="#525053"/>
<circle cx="88" cy="8" r="4" fill="#525053"/>
<circle cx="152" cy="8" r="4" fill="#525053"/>
<circle cx="216" cy="8" r="4" fill="#525053"/>
<circle cx="280" cy="8" r="4" fill="#525053"/>
<circle cx="344" cy="8" r="4" fill="#525053"/>
<circle cx="40" cy="8" r="4" fill="#525053"/>
<circle cx="104" cy="8" r="4" fill="#525053"/>
<circle cx="168" cy="8" r="4" fill="#525053"/>
<circle cx="232" cy="8" r="4" fill="#525053"/>
<circle cx="296" cy="8" r="4" fill="#525053"/>
<circle cx="360" cy="8" r="4" fill="#525053"/>
<circle cx="56" cy="8" r="4" fill="#525053"/>
<circle cx="120" cy="8" r="4" fill="#525053"/>
<circle cx="184" cy="8" r="4" fill="#525053"/>
<circle cx="248" cy="8" r="4" fill="#525053"/>
<circle cx="312" cy="8" r="4" fill="#525053"/>
<circle cx="376" cy="8" r="4" fill="#525053"/>
<circle cx="392" cy="8" r="4" fill="#525053"/>
<circle cx="8" cy="24" r="4" fill="#525053"/>
<circle cx="72" cy="24" r="4" fill="#525053"/>
<circle cx="136" cy="24" r="4" fill="#525053"/>
<circle cx="200" cy="24" r="4" fill="#525053"/>
<circle cx="264" cy="24" r="4" fill="#525053"/>
<circle cx="328" cy="24" r="4" fill="#525053"/>
<circle cx="24" cy="24" r="4" fill="#525053"/>
<circle cx="88" cy="24" r="4" fill="#525053"/>
<circle cx="152" cy="24" r="4" fill="#525053"/>
<circle cx="216" cy="24" r="4" fill="#525053"/>
<circle cx="280" cy="24" r="4" fill="#525053"/>
<circle cx="344" cy="24" r="4" fill="#525053"/>
<circle cx="40" cy="24" r="4" fill="#525053"/>
<circle cx="104" cy="24" r="4" fill="#525053"/>
<circle cx="168" cy="24" r="4" fill="#525053"/>
<circle cx="232" cy="24" r="4" fill="#525053"/>
<circle cx="296" cy="24" r="4" fill="#525053"/>
<circle cx="360" cy="24" r="4" fill="#525053"/>
<circle cx="56" cy="24" r="4" fill="#525053"/>
<circle cx="120" cy="24" r="4" fill="#525053"/>
<circle cx="184" cy="24" r="4" fill="#525053"/>
<circle cx="248" cy="24" r="4" fill="#525053"/>
<circle cx="312" cy="24" r="4" fill="#525053"/>
<circle cx="376" cy="24" r="4" fill="#525053"/>
<circle cx="392" cy="24" r="4" fill="#525053"/>
<circle cx="8" cy="40" r="4" fill="#525053"/>
<circle cx="72" cy="40" r="4" fill="#525053"/>
<circle cx="136" cy="40" r="4" fill="#525053"/>
<circle cx="200" cy="40" r="4" fill="#525053"/>
<circle cx="264" cy="40" r="4" fill="#525053"/>
<circle cx="328" cy="40" r="4" fill="#525053"/>
<circle cx="24" cy="40" r="4" fill="#525053"/>
<circle cx="88" cy="40" r="4" fill="#525053"/>
<circle cx="152" cy="40" r="4" fill="#525053"/>
<circle cx="216" cy="40" r="4" fill="#525053"/>
<circle cx="280" cy="40" r="4" fill="#525053"/>
<circle cx="344" cy="40" r="4" fill="#525053"/>
<circle cx="40" cy="40" r="4" fill="#525053"/>
<circle cx="104" cy="40" r="4" fill="#525053"/>
<circle cx="168" cy="40" r="4" fill="#525053"/>
<circle cx="232" cy="40" r="4" fill="#525053"/>
<circle cx="296" cy="40" r="4" fill="#525053"/>
<circle cx="360" cy="40" r="4" fill="#525053"/>
<circle cx="56" cy="40" r="4" fill="#525053"/>
<circle cx="120" cy="40" r="4" fill="#525053"/>
<circle cx="184" cy="40" r="4" fill="#525053"/>
<circle cx="248" cy="40" r="4" fill="#525053"/>
<circle cx="312" cy="40" r="4" fill="#525053"/>
<circle cx="376" cy="40" r="4" fill="#525053"/>
<circle cx="392" cy="40" r="4" fill="#525053"/>
<circle cx="8" cy="56" r="4" fill="#525053"/>
<circle cx="72" cy="56" r="4" fill="#525053"/>
<circle cx="136" cy="56" r="4" fill="#525053"/>
<circle cx="200" cy="56" r="4" fill="#525053"/>
<circle cx="264" cy="56" r="4" fill="#525053"/>
<circle cx="328" cy="56" r="4" fill="#525053"/>
<circle cx="24" cy="56" r="4" fill="#525053"/>
<circle cx="88" cy="56" r="4" fill="#525053"/>
<circle cx="152" cy="56" r="4" fill="#525053"/>
<circle cx="216" cy="56" r="4" fill="#525053"/>
<circle cx="280" cy="56" r="4" fill="#525053"/>
<circle cx="344" cy="56" r="4" fill="#525053"/>
<circle cx="40" cy="56" r="4" fill="#525053"/>
<circle cx="104" cy="56" r="4" fill="#525053"/>
<circle cx="168" cy="56" r="4" fill="#525053"/>
<circle cx="232" cy="56" r="4" fill="#525053"/>
<circle cx="296" cy="56" r="4" fill="#525053"/>
<circle cx="360" cy="56" r="4" fill="#525053"/>
<circle cx="56" cy="56" r="4" fill="#525053"/>
<circle cx="120" cy="56" r="4" fill="#525053"/>
<circle cx="184" cy="56" r="4" fill="#525053"/>
<circle cx="248" cy="56" r="4" fill="#525053"/>
<circle cx="312" cy="56" r="4" fill="#525053"/>
<circle cx="376" cy="56" r="4" fill="#525053"/>
<circle cx="392" cy="56" r="4" fill="#525053"/>
<circle cx="8" cy="72" r="4" fill="#525053"/>
<circle cx="72" cy="72" r="4" fill="#525053"/>
<circle cx="136" cy="72" r="4" fill="#525053"/>
<circle cx="200" cy="72" r="4" fill="#525053"/>
<circle cx="264" cy="72" r="4" fill="#525053"/>
<circle cx="328" cy="72" r="4" fill="#525053"/>
<circle cx="24" cy="72" r="4" fill="#525053"/>
<circle cx="88" cy="72" r="4" fill="#525053"/>
<circle cx="152" cy="72" r="4" fill="#525053"/>
<circle cx="216" cy="72" r="4" fill="#525053"/>
<circle cx="280" cy="72" r="4" fill="#525053"/>
<circle cx="344" cy="72" r="4" fill="#525053"/>
<circle cx="40" cy="72" r="4" fill="#525053"/>
<circle cx="104" cy="72" r="4" fill="#525053"/>
<circle cx="168" cy="72" r="4" fill="#525053"/>
<circle cx="232" cy="72" r="4" fill="#525053"/>
<circle cx="296" cy="72" r="4" fill="#525053"/>
<circle cx="360" cy="72" r="4" fill="#525053"/>
<circle cx="56" cy="72" r="4" fill="#525053"/>
<circle cx="120" cy="72" r="4" fill="#525053"/>
<circle cx="184" cy="72" r="4" fill="#525053"/>
<circle cx="248" cy="72" r="4" fill="#525053"/>
<circle cx="312" cy="72" r="4" fill="#525053"/>
<circle cx="376" cy="72" r="4" fill="#525053"/>
<circle cx="392" cy="72" r="4" fill="#525053"/>
<circle cx="8" cy="88" r="4" fill="#525053"/>
<circle cx="72" cy="88" r="4" fill="#525053"/>
<circle cx="136" cy="88" r="4" fill="#525053"/>
<circle cx="200" cy="88" r="4" fill="#525053"/>
<circle cx="264" cy="88" r="4" fill="#525053"/>
<circle cx="328" cy="88" r="4" fill="#525053"/>
<circle cx="24" cy="88" r="4" fill="#525053"/>
<circle cx="88" cy="88" r="4" fill="#525053"/>
<circle cx="152" cy="88" r="4" fill="#525053"/>
<circle cx="216" cy="88" r="4" fill="#525053"/>
<circle cx="280" cy="88" r="4" fill="#525053"/>
<circle cx="344" cy="88" r="4" fill="#525053"/>
<circle cx="40" cy="88" r="4" fill="#525053"/>
<circle cx="104" cy="88" r="4" fill="#525053"/>
<circle cx="168" cy="88" r="4" fill="#525053"/>
<circle cx="232" cy="88" r="4" fill="#525053"/>
<circle cx="296" cy="88" r="4" fill="#525053"/>
<circle cx="360" cy="88" r="4" fill="#525053"/>
<circle cx="56" cy="88" r="4" fill="#525053"/>
<circle cx="120" cy="88" r="4" fill="#525053"/>
<circle cx="184" cy="88" r="4" fill="#525053"/>
<circle cx="248" cy="88" r="4" fill="#525053"/>
<circle cx="312" cy="88" r="4" fill="#525053"/>
<circle cx="376" cy="88" r="4" fill="#525053"/>
<circle cx="392" cy="88" r="4" fill="#525053"/>
<circle cx="8" cy="104" r="4" fill="#525053"/>
<circle cx="72" cy="104" r="4" fill="#525053"/>
<circle cx="136" cy="104" r="4" fill="#525053"/>
<circle cx="200" cy="104" r="4" fill="#525053"/>
<circle cx="264" cy="104" r="4" fill="#525053"/>
<circle cx="328" cy="104" r="4" fill="#525053"/>
<circle cx="24" cy="104" r="4" fill="#525053"/>
<circle cx="88" cy="104" r="4" fill="#525053"/>
<circle cx="152" cy="104" r="4" fill="#525053"/>
<circle cx="216" cy="104" r="4" fill="#525053"/>
<circle cx="280" cy="104" r="4" fill="#525053"/>
<circle cx="344" cy="104" r="4" fill="#525053"/>
<circle cx="40" cy="104" r="4" fill="#525053"/>
<circle cx="104" cy="104" r="4" fill="#525053"/>
<circle cx="168" cy="104" r="4" fill="#525053"/>
<circle cx="232" cy="104" r="4" fill="#525053"/>
<circle cx="296" cy="104" r="4" fill="#525053"/>
<circle cx="360" cy="104" r="4" fill="#525053"/>
<circle cx="56" cy="104" r="4" fill="#525053"/>
<circle cx="120" cy="104" r="4" fill="#525053"/>
<circle cx="184" cy="104" r="4" fill="#525053"/>
<circle cx="248" cy="104" r="4" fill="#525053"/>
<circle cx="312" cy="104" r="4" fill="#525053"/>
<circle cx="376" cy="104" r="4" fill="#525053"/>
<circle cx="392" cy="104" r="4" fill="#525053"/>
<circle cx="8" cy="120" r="4" fill="#525053"/>
<circle cx="72" cy="120" r="4" fill="#525053"/>
<circle cx="136" cy="120" r="4" fill="#525053"/>
<circle cx="200" cy="120" r="4" fill="#525053"/>
<circle cx="264" cy="120" r="4" fill="#525053" />
<circle cx="328" cy="120" r="4" fill="#525053"/>
<circle cx="24" cy="120" r="4" fill="#525053"/>
<circle cx="88" cy="120" r="4" fill="#525053"/>
<circle cx="152" cy="120" r="4" fill="#525053"/>
<circle cx="216" cy="120" r="4" fill="#525053" />
<circle cx="280" cy="120" r="4" fill="#525053"/>
<circle cx="344" cy="120" r="4" fill="#525053"/>
<circle cx="40" cy="120" r="4" fill="#525053"/>
<circle cx="104" cy="120" r="4" fill="#525053"/>
<circle cx="168" cy="120" r="4" fill="#525053"/>
<circle cx="232" cy="120" r="4" fill="#525053" />
<circle cx="296" cy="120" r="4" fill="#525053"/>
<circle cx="360" cy="120" r="4" fill="#525053"/>
<circle cx="56" cy="120" r="4" fill="#525053"/>
<circle cx="120" cy="120" r="4" fill="#525053"/>
<circle cx="184" cy="120" r="4" fill="#525053"/>
<circle cx="248" cy="120" r="4" fill="#525053" />
<circle cx="312" cy="120" r="4" fill="#525053"/>
<circle cx="376" cy="120" r="4" fill="#525053"/>
<circle cx="392" cy="120" r="4" fill="#525053"/>
<circle cx="8" cy="136" r="4" fill="#525053"/>
<circle cx="72" cy="136" r="4" fill="#525053"/>
<circle cx="136" cy="136" r="4" fill="#525053"/>
<circle cx="200" cy="136" r="4" fill="#525053"/>
<circle cx="264" cy="136" r="4" fill="#525053"/>
<circle cx="328" cy="136" r="4" fill="#525053"/>
<circle cx="24" cy="136" r="4" fill="#525053"/>
<circle cx="88" cy="136" r="4" fill="#525053"/>
<circle cx="152" cy="136" r="4" fill="#525053"/>
<circle cx="216" cy="136" r="4" fill="#525053"/>
<circle cx="280" cy="136" r="4" fill="#525053"/>
<circle cx="344" cy="136" r="4" fill="#525053"/>
<circle cx="40" cy="136" r="4" fill="#525053"/>
<circle cx="104" cy="136" r="4" fill="#525053"/>
<circle cx="168" cy="136" r="4" fill="#525053"/>
<circle cx="232" cy="136" r="4" fill="#525053"/>
<circle cx="296" cy="136" r="4" fill="#525053"/>
<circle cx="360" cy="136" r="4" fill="#525053"/>
<circle cx="56" cy="136" r="4" fill="#525053"/>
<circle cx="120" cy="136" r="4" fill="#525053"/>
<circle cx="184" cy="136" r="4" fill="#525053"/>
<circle cx="248" cy="136" r="4" fill="#525053"/>
<circle cx="312" cy="136" r="4" fill="#525053"/>
<circle cx="376" cy="136" r="4" fill="#525053"/>
<circle cx="392" cy="136" r="4" fill="#525053"/>
<circle cx="8" cy="152" r="4" fill="#525053"/>
<circle cx="72" cy="152" r="4" fill="#525053"/>
<circle cx="136" cy="152" r="4" fill="#525053"/>
<circle cx="200" cy="152" r="4" fill="#525053"/>
<circle cx="264" cy="152" r="4" fill="#525053"/>
<circle cx="328" cy="152" r="4" fill="#525053"/>
<circle cx="24" cy="152" r="4" fill="#525053"/>
<circle cx="88" cy="152" r="4" fill="#525053"/>
<circle cx="152" cy="152" r="4" fill="#525053"/>
<circle cx="216" cy="152" r="4" fill="#525053"/>
<circle cx="280" cy="152" r="4" fill="#525053"/>
<circle cx="344" cy="152" r="4" fill="#525053"/>
<circle cx="40" cy="152" r="4" fill="#525053"/>
<circle cx="104" cy="152" r="4" fill="#525053"/>
<circle cx="168" cy="152" r="4" fill="#525053"/>
<circle cx="232" cy="152" r="4" fill="#525053"/>
<circle cx="296" cy="152" r="4" fill="#525053"/>
<circle cx="360" cy="152" r="4" fill="#525053"/>
<circle cx="56" cy="152" r="4" fill="#525053"/>
<circle cx="120" cy="152" r="4" fill="#525053"/>
<circle cx="184" cy="152" r="4" fill="#525053"/>
<circle cx="248" cy="152" r="4" fill="#525053"/>
<circle cx="312" cy="152" r="4" fill="#525053"/>
<circle cx="376" cy="152" r="4" fill="#525053"/>
<circle cx="392" cy="152" r="4" fill="#525053"/>
<circle cx="8" cy="168" r="4" fill="#525053"/>
<circle cx="72" cy="168" r="4" fill="#525053"/>
<circle cx="136" cy="168" r="4" fill="#525053"/>
<circle cx="200" cy="168" r="4" fill="#525053"/>
<circle cx="264" cy="168" r="4" fill="#525053"/>
<circle cx="328" cy="168" r="4" fill="#525053"/>
<circle cx="24" cy="168" r="4" fill="#525053"/>
<circle cx="88" cy="168" r="4" fill="#525053"/>
<circle cx="152" cy="168" r="4" fill="#525053"/>
<circle cx="216" cy="168" r="4" fill="#525053"/>
<circle cx="280" cy="168" r="4" fill="#525053"/>
<circle cx="344" cy="168" r="4" fill="#525053"/>
<circle cx="40" cy="168" r="4" fill="#525053"/>
<circle cx="104" cy="168" r="4" fill="#525053"/>
<circle cx="168" cy="168" r="4" fill="#525053"/>
<circle cx="232" cy="168" r="4" fill="#525053"/>
<circle cx="296" cy="168" r="4" fill="#525053"/>
<circle cx="360" cy="168" r="4" fill="#525053"/>
<circle cx="56" cy="168" r="4" fill="#525053"/>
<circle cx="120" cy="168" r="4" fill="#525053"/>
<circle cx="184" cy="168" r="4" fill="#525053"/>
<circle cx="248" cy="168" r="4" fill="#525053"/>
<circle cx="312" cy="168" r="4" fill="#525053"/>
<circle cx="376" cy="168" r="4" fill="#525053"/>
<circle cx="392" cy="168" r="4" fill="#525053"/>
<circle cx="8" cy="184" r="4" fill="#525053"/>
<circle cx="72" cy="184" r="4" fill="#525053"/>
<circle cx="136" cy="184" r="4" fill="#525053"/>
<circle cx="200" cy="184" r="4" fill="#525053"/>
<circle cx="264" cy="184" r="4" fill="#525053"/>
<circle cx="328" cy="184" r="4" fill="#525053"/>
<circle cx="24" cy="184" r="4" fill="#525053"/>
<circle cx="88" cy="184" r="4" fill="#525053"/>
<circle cx="152" cy="184" r="4" fill="#525053"/>
<circle cx="216" cy="184" r="4" fill="#525053"/>
<circle cx="280" cy="184" r="4" fill="#525053"/>
<circle cx="344" cy="184" r="4" fill="#525053"/>
<circle cx="40" cy="184" r="4" fill="#525053"/>
<circle cx="104" cy="184" r="4" fill="#525053"/>
<circle cx="168" cy="184" r="4" fill="#525053"/>
<circle cx="232" cy="184" r="4" fill="#525053"/>
<circle cx="296" cy="184" r="4" fill="#525053"/>
<circle cx="360" cy="184" r="4" fill="#525053"/>
<circle cx="56" cy="184" r="4" fill="#525053"/>
<circle cx="120" cy="184" r="4" fill="#525053"/>
<circle cx="184" cy="184" r="4" fill="#525053"/>
<circle cx="248" cy="184" r="4" fill="#525053"/>
<circle cx="312" cy="184" r="4" fill="#525053"/>
<circle cx="376" cy="184" r="4" fill="#525053"/>
<circle cx="392" cy="184" r="4" fill="#525053"/>
<circle cx="8" cy="200" r="4" fill="#525053"/>
<circle cx="72" cy="200" r="4" fill="#525053"/>
<circle cx="136" cy="200" r="4" fill="#525053"/>
<circle cx="200" cy="200" r="4" fill="#525053"/>
<circle cx="264" cy="200" r="4" fill="#525053"/>
<circle cx="328" cy="200" r="4" fill="#525053"/>
<circle cx="24" cy="200" r="4" fill="#525053"/>
<circle cx="88" cy="200" r="4" fill="#525053"/>
<circle cx="152" cy="200" r="4" fill="#525053"/>
<circle cx="216" cy="200" r="4" fill="#525053"/>
<circle cx="280" cy="200" r="4" fill="#525053"/>
<circle cx="344" cy="200" r="4" fill="#525053"/>
<circle cx="40" cy="200" r="4" fill="#525053"/>
<circle cx="104" cy="200" r="4" fill="#525053"/>
<circle cx="168" cy="200" r="4" fill="#525053"/>
<circle cx="232" cy="200" r="4" fill="#525053"/>
<circle cx="296" cy="200" r="4" fill="#525053"/>
<circle cx="360" cy="200" r="4" fill="#525053"/>
<circle cx="56" cy="200" r="4" fill="#525053"/>
<circle cx="120" cy="200" r="4" fill="#525053"/>
<circle cx="184" cy="200" r="4" fill="#525053"/>
<circle cx="248" cy="200" r="4" fill="#525053"/>
<circle cx="312" cy="200" r="4" fill="#525053"/>
<circle cx="376" cy="200" r="4" fill="#525053"/>
<circle cx="392" cy="200" r="4" fill="#525053"/>
<circle cx="8" cy="216" r="4" fill="#525053"/>
<circle cx="72" cy="216" r="4" fill="#525053"/>
<circle cx="136" cy="216" r="4" fill="#525053"/>
<circle cx="200" cy="216" r="4" fill="#525053"/>
<circle cx="264" cy="216" r="4" fill="#525053"/>
<circle cx="328" cy="216" r="4" fill="#525053"/>
<circle cx="24" cy="216" r="4" fill="#525053"/>
<circle cx="88" cy="216" r="4" fill="#525053"/>
<circle cx="152" cy="216" r="4" fill="#525053"/>
<circle cx="216" cy="216" r="4" fill="#525053"/>
<circle cx="280" cy="216" r="4" fill="#525053"/>
<circle cx="344" cy="216" r="4" fill="#525053"/>
<circle cx="40" cy="216" r="4" fill="#525053"/>
<circle cx="104" cy="216" r="4" fill="#525053"/>
<circle cx="168" cy="216" r="4" fill="#525053"/>
<circle cx="232" cy="216" r="4" fill="#525053"/>
<circle cx="296" cy="216" r="4" fill="#525053"/>
<circle cx="360" cy="216" r="4" fill="#525053"/>
<circle cx="56" cy="216" r="4" fill="#525053"/>
<circle cx="120" cy="216" r="4" fill="#525053"/>
<circle cx="184" cy="216" r="4" fill="#525053"/>
<circle cx="248" cy="216" r="4" fill="#525053"/>
<circle cx="312" cy="216" r="4" fill="#525053"/>
<circle cx="376" cy="216" r="4" fill="#525053"/>
<circle cx="392" cy="216" r="4" fill="#525053"/>
<circle cx="8" cy="232" r="4" fill="#525053"/>
<circle cx="72" cy="232" r="4" fill="#525053"/>
<circle cx="136" cy="232" r="4" fill="#525053"/>
<circle cx="200" cy="232" r="4" fill="#525053"/>
<circle cx="264" cy="232" r="4" fill="#525053"/>
<circle cx="328" cy="232" r="4" fill="#525053"/>
<circle cx="24" cy="232" r="4" fill="#525053"/>
<circle cx="88" cy="232" r="4" fill="#525053"/>
<circle cx="152" cy="232" r="4" fill="#525053"/>
<circle cx="216" cy="232" r="4" fill="#525053"/>
<circle cx="280" cy="232" r="4" fill="#525053"/>
<circle cx="344" cy="232" r="4" fill="#525053"/>
<circle cx="40" cy="232" r="4" fill="#525053"/>
<circle cx="104" cy="232" r="4" fill="#525053"/>
<circle cx="168" cy="232" r="4" fill="#525053"/>
<circle cx="232" cy="232" r="4" fill="#525053"/>
<circle cx="296" cy="232" r="4" fill="#525053"/>
<circle cx="360" cy="232" r="4" fill="#525053"/>
<circle cx="56" cy="232" r="4" fill="#525053"/>
<circle cx="120" cy="232" r="4" fill="#525053"/>
<circle cx="184" cy="232" r="4" fill="#525053"/>
<circle cx="248" cy="232" r="4" fill="#525053"/>
<circle cx="312" cy="232" r="4" fill="#525053"/>
<circle cx="376" cy="232" r="4" fill="#525053"/>
<circle cx="392" cy="232" r="4" fill="#525053"/>
<circle cx="8" cy="248" r="4" fill="#525053"/>
<circle cx="72" cy="248" r="4" fill="#525053"/>
<circle cx="136" cy="248" r="4" fill="#525053"/>
<circle cx="200" cy="248" r="4" fill="#525053"/>
<circle cx="264" cy="248" r="4" fill="#525053"/>
<circle cx="328" cy="248" r="4" fill="#525053"/>
<circle cx="24" cy="248" r="4" fill="#525053"/>
<circle cx="88" cy="248" r="4" fill="#525053"/>
<circle cx="152" cy="248" r="4" fill="#525053"/>
<circle cx="216" cy="248" r="4" fill="#525053"/>
<circle cx="280" cy="248" r="4" fill="#525053"/>
<circle cx="344" cy="248" r="4" fill="#525053"/>
<circle cx="40" cy="248" r="4" fill="#525053"/>
<circle cx="104" cy="248" r="4" fill="#525053"/>
<circle cx="168" cy="248" r="4" fill="#525053"/>
<circle cx="232" cy="248" r="4" fill="#525053"/>
<circle cx="296" cy="248" r="4" fill="#525053"/>
<circle cx="360" cy="248" r="4" fill="#525053"/>
<circle cx="56" cy="248" r="4" fill="#525053"/>
<circle cx="120" cy="248" r="4" fill="#525053"/>
<circle cx="184" cy="248" r="4" fill="#525053"/>
<circle cx="248" cy="248" r="4" fill="#525053"/>
<circle cx="312" cy="248" r="4" fill="#525053"/>
<circle cx="376" cy="248" r="4" fill="#525053"/>
<circle cx="392" cy="248" r="4" fill="#525053"/>
<circle cx="8" cy="264" r="4" fill="#525053"/>
<circle cx="72" cy="264" r="4" fill="#525053"/>
<circle cx="136" cy="264" r="4" fill="#525053"/>
<circle cx="200" cy="264" r="4" fill="#525053"/>
<circle cx="264" cy="264" r="4" fill="#525053"/>
<circle cx="328" cy="264" r="4" fill="#525053"/>
<circle cx="24" cy="264" r="4" fill="#525053"/>
<circle cx="88" cy="264" r="4" fill="#525053"/>
<circle cx="152" cy="264" r="4" fill="#525053"/>
<circle cx="216" cy="264" r="4" fill="#525053"/>
<circle cx="280" cy="264" r="4" fill="#525053"/>
<circle cx="344" cy="264" r="4" fill="#525053"/>
<circle cx="40" cy="264" r="4" fill="#525053"/>
<circle cx="104" cy="264" r="4" fill="#525053"/>
<circle cx="168" cy="264" r="4" fill="#525053"/>
<circle cx="232" cy="264" r="4" fill="#525053"/>
<circle cx="296" cy="264" r="4" fill="#525053"/>
<circle cx="360" cy="264" r="4" fill="#525053"/>
<circle cx="56" cy="264" r="4" fill="#525053"/>
<circle cx="120" cy="264" r="4" fill="#525053"/>
<circle cx="184" cy="264" r="4" fill="#525053"/>
<circle cx="248" cy="264" r="4" fill="#525053"/>
<circle cx="312" cy="264" r="4" fill="#525053"/>
<circle cx="376" cy="264" r="4" fill="#525053"/>
<circle cx="392" cy="264" r="4" fill="#525053"/>
<circle cx="8" cy="280" r="4" fill="#525053"/>
<circle cx="72" cy="280" r="4" fill="#525053"/>
<circle cx="136" cy="280" r="4" fill="#525053"/>
<circle cx="200" cy="280" r="4" fill="#525053"/>
<circle cx="264" cy="280" r="4" fill="#525053"/>
<circle cx="328" cy="280" r="4" fill="#525053"/>
<circle cx="24" cy="280" r="4" fill="#525053"/>
<circle cx="88" cy="280" r="4" fill="#525053"/>
<circle cx="152" cy="280" r="4" fill="#525053"/>
<circle cx="216" cy="280" r="4" fill="#525053"/>
<circle cx="280" cy="280" r="4" fill="#525053"/>
<circle cx="344" cy="280" r="4" fill="#525053"/>
<circle cx="40" cy="280" r="4" fill="#525053"/>
<circle cx="104" cy="280" r="4" fill="#525053"/>
<circle cx="168" cy="280" r="4" fill="#525053"/>
<circle cx="232" cy="280" r="4" fill="#525053"/>
<circle cx="296" cy="280" r="4" fill="#525053"/>
<circle cx="360" cy="280" r="4" fill="#525053"/>
<circle cx="56" cy="280" r="4" fill="#525053"/>
<circle cx="120" cy="280" r="4" fill="#525053"/>
<circle cx="184" cy="280" r="4" fill="#525053"/>
<circle cx="248" cy="280" r="4" fill="#525053"/>
<circle cx="312" cy="280" r="4" fill="#525053"/>
<circle cx="376" cy="280" r="4" fill="#525053"/>
<circle cx="392" cy="280" r="4" fill="#525053"/>
<circle cx="8" cy="296" r="4" fill="#525053"/>
<circle cx="72" cy="296" r="4" fill="#525053"/>
<circle cx="136" cy="296" r="4" fill="#525053"/>
<circle cx="200" cy="296" r="4" fill="#525053"/>
<circle cx="264" cy="296" r="4" fill="#525053"/>
<circle cx="328" cy="296" r="4" fill="#525053"/>
<circle cx="24" cy="296" r="4" fill="#525053"/>
<circle cx="88" cy="296" r="4" fill="#525053"/>
<circle cx="152" cy="296" r="4" fill="#525053"/>
<circle cx="216" cy="296" r="4" fill="#525053"/>
<circle cx="280" cy="296" r="4" fill="#525053"/>
<circle cx="344" cy="296" r="4" fill="#525053"/>
<circle cx="40" cy="296" r="4" fill="#525053"/>
<circle cx="104" cy="296" r="4" fill="#525053"/>
<circle cx="168" cy="296" r="4" fill="#525053"/>
<circle cx="232" cy="296" r="4" fill="#525053"/>
<circle cx="296" cy="296" r="4" fill="#525053"/>
<circle cx="360" cy="296" r="4" fill="#525053"/>
<circle cx="56" cy="296" r="4" fill="#525053"/>
<circle cx="120" cy="296" r="4" fill="#525053"/>
<circle cx="184" cy="296" r="4" fill="#525053"/>
<circle cx="248" cy="296" r="4" fill="#525053"/>
<circle cx="312" cy="296" r="4" fill="#525053"/>
<circle cx="376" cy="296" r="4" fill="#525053"/>
<circle cx="392" cy="296" r="4" fill="#525053"/>
<circle cx="8" cy="312" r="4" fill="#525053"/>
<circle cx="72" cy="312" r="4" fill="#525053"/>
<circle cx="136" cy="312" r="4" fill="#525053"/>
<circle cx="200" cy="312" r="4" fill="#525053"/>
<circle cx="264" cy="312" r="4" fill="#525053"/>
<circle cx="328" cy="312" r="4" fill="#525053"/>
<circle cx="24" cy="312" r="4" fill="#525053"/>
<circle cx="88" cy="312" r="4" fill="#525053"/>
<circle cx="152" cy="312" r="4" fill="#525053"/>
<circle cx="216" cy="312" r="4" fill="#525053"/>
<circle cx="280" cy="312" r="4" fill="#525053"/>
<circle cx="344" cy="312" r="4" fill="#525053"/>
<circle cx="40" cy="312" r="4" fill="#525053"/>
<circle cx="104" cy="312" r="4" fill="#525053"/>
<circle cx="168" cy="312" r="4" fill="#525053"/>
<circle cx="232" cy="312" r="4" fill="#525053"/>
<circle cx="296" cy="312" r="4" fill="#525053"/>
<circle cx="360" cy="312" r="4" fill="#525053"/>
<circle cx="56" cy="312" r="4" fill="#525053"/>
<circle cx="120" cy="312" r="4" fill="#525053"/>
<circle cx="184" cy="312" r="4" fill="#525053"/>
<circle cx="248" cy="312" r="4" fill="#525053"/>
<circle cx="312" cy="312" r="4" fill="#525053"/>
<circle cx="376" cy="312" r="4" fill="#525053"/>
<circle cx="392" cy="312" r="4" fill="#525053"/>
<circle cx="8" cy="328" r="4" fill="#525053"/>
<circle cx="72" cy="328" r="4" fill="#525053"/>
<circle cx="136" cy="328" r="4" fill="#525053"/>
<circle cx="200" cy="328" r="4" fill="#525053"/>
<circle cx="264" cy="328" r="4" fill="#525053"/>
<circle cx="328" cy="328" r="4" fill="#525053"/>
<circle cx="24" cy="328" r="4" fill="#525053"/>
<circle cx="88" cy="328" r="4" fill="#525053"/>
<circle cx="152" cy="328" r="4" fill="#525053"/>
<circle cx="216" cy="328" r="4" fill="#525053"/>
<circle cx="280" cy="328" r="4" fill="#525053"/>
<circle cx="344" cy="328" r="4" fill="#525053"/>
<circle cx="40" cy="328" r="4" fill="#525053"/>
<circle cx="104" cy="328" r="4" fill="#525053"/>
<circle cx="168" cy="328" r="4" fill="#525053"/>
<circle cx="232" cy="328" r="4" fill="#525053"/>
<circle cx="296" cy="328" r="4" fill="#525053"/>
<circle cx="360" cy="328" r="4" fill="#525053"/>
<circle cx="56" cy="328" r="4" fill="#525053"/>
<circle cx="120" cy="328" r="4" fill="#525053"/>
<circle cx="184" cy="328" r="4" fill="#525053"/>
<circle cx="248" cy="328" r="4" fill="#525053"/>
<circle cx="312" cy="328" r="4" fill="#525053"/>
<circle cx="376" cy="328" r="4" fill="#525053"/>
<circle cx="392" cy="328" r="4" fill="#525053"/>
<circle cx="8" cy="344" r="4" fill="#525053"/>
<circle cx="72" cy="344" r="4" fill="#525053"/>
<circle cx="136" cy="344" r="4" fill="#525053"/>
<circle cx="200" cy="344" r="4" fill="#525053"/>
<circle cx="264" cy="344" r="4" fill="#525053"/>
<circle cx="328" cy="344" r="4" fill="#525053"/>
<circle cx="24" cy="344" r="4" fill="#525053"/>
<circle cx="88" cy="344" r="4" fill="#525053"/>
<circle cx="152" cy="344" r="4" fill="#525053"/>
<circle cx="216" cy="344" r="4" fill="#525053"/>
<circle cx="280" cy="344" r="4" fill="#525053"/>
<circle cx="344" cy="344" r="4" fill="#525053"/>
<circle cx="40" cy="344" r="4" fill="#525053"/>
<circle cx="104" cy="344" r="4" fill="#525053"/>
<circle cx="168" cy="344" r="4" fill="#525053"/>
<circle cx="232" cy="344" r="4" fill="#525053"/>
<circle cx="296" cy="344" r="4" fill="#525053"/>
<circle cx="360" cy="344" r="4" fill="#525053"/>
<circle cx="56" cy="344" r="4" fill="#525053"/>
<circle cx="120" cy="344" r="4" fill="#525053"/>
<circle cx="184" cy="344" r="4" fill="#525053"/>
<circle cx="248" cy="344" r="4" fill="#525053"/>
<circle cx="312" cy="344" r="4" fill="#525053"/>
<circle cx="376" cy="344" r="4" fill="#525053"/>
<circle cx="392" cy="344" r="4" fill="#525053"/>
<circle cx="8" cy="360" r="4" fill="#525053"/>
<circle cx="72" cy="360" r="4" fill="#525053"/>
<circle cx="136" cy="360" r="4" fill="#525053"/>
<circle cx="200" cy="360" r="4" fill="#525053"/>
<circle cx="264" cy="360" r="4" fill="#525053"/>
<circle cx="328" cy="360" r="4" fill="#525053"/>
<circle cx="24" cy="360" r="4" fill="#525053"/>
<circle cx="88" cy="360" r="4" fill="#525053"/>
<circle cx="152" cy="360" r="4" fill="#525053"/>
<circle cx="216" cy="360" r="4" fill="#525053"/>
<circle cx="280" cy="360" r="4" fill="#525053"/>
<circle cx="344" cy="360" r="4" fill="#525053"/>
<circle cx="40" cy="360" r="4" fill="#525053"/>
<circle cx="104" cy="360" r="4" fill="#525053"/>
<circle cx="168" cy="360" r="4" fill="#525053"/>
<circle cx="232" cy="360" r="4" fill="#525053"/>
<circle cx="296" cy="360" r="4" fill="#525053"/>
<circle cx="360" cy="360" r="4" fill="#525053"/>
<circle cx="56" cy="360" r="4" fill="#525053"/>
<circle cx="120" cy="360" r="4" fill="#525053"/>
<circle cx="184" cy="360" r="4" fill="#525053"/>
<circle cx="248" cy="360" r="4" fill="#525053"/>
<circle cx="312" cy="360" r="4" fill="#525053"/>
<circle cx="376" cy="360" r="4" fill="#525053"/>
<circle cx="392" cy="360" r="4" fill="#525053"/>
<circle cx="8" cy="376" r="4" fill="#525053"/>
<circle cx="72" cy="376" r="4" fill="#525053"/>
<circle cx="136" cy="376" r="4" fill="#525053"/>
<circle cx="200" cy="376" r="4" fill="#525053"/>
<circle cx="264" cy="376" r="4" fill="#525053"/>
<circle cx="328" cy="376" r="4" fill="#525053"/>
<circle cx="24" cy="376" r="4" fill="#525053"/>
<circle cx="88" cy="376" r="4" fill="#525053"/>
<circle cx="152" cy="376" r="4" fill="#525053"/>
<circle cx="216" cy="376" r="4" fill="#525053"/>
<circle cx="280" cy="376" r="4" fill="#525053"/>
<circle cx="344" cy="376" r="4" fill="#525053"/>
<circle cx="40" cy="376" r="4" fill="#525053"/>
<circle cx="104" cy="376" r="4" fill="#525053"/>
<circle cx="168" cy="376" r="4" fill="#525053"/>
<circle cx="232" cy="376" r="4" fill="#525053"/>
<circle cx="296" cy="376" r="4" fill="#525053"/>
<circle cx="360" cy="376" r="4" fill="#525053"/>
<circle cx="56" cy="376" r="4" fill="#525053"/>
<circle cx="120" cy="376" r="4" fill="#525053"/>
<circle cx="184" cy="376" r="4" fill="#525053"/>
<circle cx="248" cy="376" r="4" fill="#525053"/>
<circle cx="312" cy="376" r="4" fill="#525053"/>
<circle cx="376" cy="376" r="4" fill="#525053"/>
<circle cx="392" cy="376" r="4" fill="#525053"/>
<circle cx="8" cy="392" r="4" fill="#525053"/>
<circle cx="72" cy="392" r="4" fill="#525053"/>
<circle cx="136" cy="392" r="4" fill="#525053"/>
<circle cx="200" cy="392" r="4" fill="#525053"/>
<circle cx="264" cy="392" r="4" fill="#525053"/>
<circle cx="328" cy="392" r="4" fill="#525053"/>
<circle cx="24" cy="392" r="4" fill="#525053"/>
<circle cx="88" cy="392" r="4" fill="#525053"/>
<circle cx="152" cy="392" r="4" fill="#525053"/>
<circle cx="216" cy="392" r="4" fill="#525053"/>
<circle cx="280" cy="392" r="4" fill="#525053"/>
<circle cx="344" cy="392" r="4" fill="#525053"/>
<circle cx="40" cy="392" r="4" fill="#525053"/>
<circle cx="104" cy="392" r="4" fill="#525053"/>
<circle cx="168" cy="392" r="4" fill="#525053"/>
<circle cx="232" cy="392" r="4" fill="#525053"/>
<circle cx="296" cy="392" r="4" fill="#525053"/>
<circle cx="360" cy="392" r="4" fill="#525053"/>
<circle cx="56" cy="392" r="4" fill="#525053"/>
<circle cx="120" cy="392" r="4" fill="#525053"/>
<circle cx="184" cy="392" r="4" fill="#525053"/>
<circle cx="248" cy="392" r="4" fill="#525053"/>
<circle cx="312" cy="392" r="4" fill="#525053"/>
<circle cx="376" cy="392" r="4" fill="#525053"/>
<circle cx="392" cy="392" r="4" fill="#525053"/>
</svg>
